<!-- Save as: favicon.svg  (works great as a tab icon) -->
<svg xmlns="http://www.w3.org/2000/svg" viewBox="0 0 64 64" role="img" aria-label="BranchMaster icon">
  <defs>
    <!-- Brand blues -->
    <linearGradient id="g" x1="10" y1="6" x2="54" y2="58" gradientUnits="userSpaceOnUse">
      <stop offset="0" stop-color="#00244D"></stop>
      <stop offset="1" stop-color="#123B6D"></stop>
    </linearGradient>

    <!-- Soft highlight -->
    <linearGradient id="h" x1="14" y1="10" x2="46" y2="44" gradientUnits="userSpaceOnUse">
      <stop offset="0" stop-color="#FFFFFF" stop-opacity="0.30"></stop>
      <stop offset="1" stop-color="#FFFFFF" stop-opacity="0.00"></stop>
    </linearGradient>

    <filter id="s" x="-20%" y="-20%" width="140%" height="140%">
      <feDropShadow dx="0" dy="2" stdDeviation="2" flood-color="#001A38" flood-opacity="0.35"></feDropShadow>
    </filter>
  </defs>

  <!-- Rounded tile -->
  <rect x="6" y="6" width="52" height="52" rx="14" fill="url(#g)" filter="url(#s)"></rect>

  <!-- Subtle shine -->
  <path d="M18 12h18c7.7 0 14 6.3 14 14v2c-3.1-8.7-10.8-14-20-14H16c.6-1.3 1.9-2 2-2z" fill="url(#h)"></path>

  <!-- Calendar outline -->
  <g fill="none" stroke="#FFFFFF" stroke-width="3.2" stroke-linecap="round" stroke-linejoin="round" opacity="0.96">
    <path d="M20 26h24"></path>
    <path d="M22 22h20a6 6 0 0 1 6 6v14a6 6 0 0 1-6 6H22a6 6 0 0 1-6-6V28a6 6 0 0 1 6-6z"></path>
    <path d="M24 18v6M40 18v6"></path>
  </g>

  <!-- Check mark (booking confirmed vibe) -->
  <path d="M26 37.5l4.2 4.2L40 31.9" fill="none" stroke="#7CF08A" stroke-width="4" stroke-linecap="round" stroke-linejoin="round"></path>

  <!-- Tiny accent dot (feels modern in small sizes) -->
  <circle cx="46" cy="46" r="2.6" fill="#7CF08A" opacity="0.95"></circle>
</svg>
